<svg width="210" height="45" viewBox="0 0 2821 477" fill="none" xmlns="http://www.w3.org/2000/svg">
  <path d="M1839.51 9.15503C1792.71 16.755 1757.24 51.955 1749.51 98.6217C1747.51 110.622 1748.58 127.688 1752.18 141.822C1761.24 177.422 1790.58 206.622 1827.38 216.888C1838.98 220.088 1869.64 220.088 1881.38 216.755C1916.58 207.022 1944.04 180.888 1955.78 145.955C1958.98 136.355 1959.38 133.288 1959.38 115.955C1959.51 101.555 1958.84 94.355 1957.11 87.955C1954.04 76.355 1944.31 57.0217 1936.98 47.6884C1924.31 31.6884 1902.84 17.555 1882.84 11.955C1871.64 8.88837 1849.91 7.55503 1839.51 9.15503ZM1881.24 33.6884C1908.58 43.155 1931.11 68.2217 1936.84 95.555C1946.04 138.488 1923.78 178.355 1881.78 194.355C1873.78 197.422 1870.98 197.822 1854.84 197.822C1838.84 197.822 1835.78 197.422 1827.11 194.355C1800.98 185.022 1779.91 162.355 1772.71 135.955C1769.24 122.755 1769.38 103.155 1773.24 90.6217C1780.98 65.8217 1797.24 47.2884 1820.84 36.4884C1838.31 28.4884 1862.98 27.2884 1881.24 33.6884Z" fill="black"/>
  <path d="M1840.84 52.4882C1813.91 59.5549 1795.51 80.2215 1791.64 107.555C1790.44 116.222 1793.11 131.688 1797.51 141.022C1802.31 151.288 1816.44 165.955 1825.91 170.488C1851.38 182.755 1879.11 178.222 1898.98 158.622C1931.64 126.355 1919.24 70.8882 1875.64 54.7549C1865.78 51.1549 1849.91 50.0882 1840.84 52.4882ZM1870.18 75.5549C1879.38 78.6215 1889.51 88.8882 1893.38 99.2882C1897.24 109.422 1896.84 123.155 1892.31 132.222C1880.04 157.688 1845.24 163.955 1825.51 144.088C1818.44 136.888 1815.24 130.888 1813.38 120.622C1810.98 107.555 1814.71 95.8215 1824.71 85.5549C1836.71 72.8882 1852.04 69.5549 1870.18 75.5549Z" fill="black"/>
  <path d="M459.51 1.28829C459.11 1.95496 457.243 2.62162 455.376 2.62162C453.51 2.62162 449.776 3.82162 446.976 5.28829C436.976 10.355 433.776 15.955 419.243 54.2216C411.776 73.8216 391.11 128.088 373.376 174.622C355.643 221.155 340.31 261.422 339.376 263.955C338.443 266.488 323.51 305.822 306.176 351.155C288.843 396.622 274.043 436.488 273.243 439.955C272.176 444.888 272.31 447.555 274.043 453.555C279.376 472.222 298.043 481.288 315.11 473.555C328.043 467.688 322.71 479.955 410.576 251.022C484.043 59.4216 491.243 39.955 491.376 32.6216C491.376 19.0216 482.576 7.02162 470.043 3.68829C466.843 2.75496 464.176 1.55496 464.176 1.02162C464.176 -0.445044 460.443 -0.311711 459.51 1.28829Z" fill="#5451E9"/>
  <path d="M212.843 15.2883C208.576 16.7549 188.31 36.3549 106.443 118.888C47.5098 178.088 4.17644 222.755 2.57644 225.822C-0.62356 232.088 -0.890227 244.222 2.04311 251.288C3.37644 254.488 36.7098 289.022 104.843 357.955C215.643 469.688 211.91 466.488 225.91 464.888C242.843 462.755 254.576 450.222 254.71 433.955C254.843 422.355 253.51 420.755 161.91 328.088C114.043 279.822 74.8431 239.555 74.8431 238.888C74.8431 238.222 114.043 198.088 161.91 149.822C209.91 101.422 250.176 59.8216 251.643 57.2883C255.243 50.4883 254.976 37.0216 251.11 29.6883C244.176 16.3549 227.643 10.2216 212.843 15.2883Z" fill="#5451E9"/>
  <path d="M522.043 16.3549C506.31 23.9549 499.643 42.8883 507.643 57.8216C509.11 60.3549 549.377 101.822 597.243 150.088C645.11 198.355 684.177 238.488 683.91 239.288C683.643 240.222 644.31 280.488 596.31 328.755C536.71 388.755 508.31 418.355 506.71 421.955C503.11 429.822 503.51 439.288 507.643 447.822C515.377 463.288 533.91 469.288 549.51 461.288C555.91 457.955 751.91 260.222 755.91 253.022C759.777 245.955 759.91 233.688 756.177 225.688C754.31 221.555 726.31 192.622 653.243 119.155C598.043 63.6883 551.11 17.4216 548.843 16.3549C546.71 15.1549 541.377 13.9549 536.843 13.6882C530.31 13.2882 527.643 13.6882 522.043 16.3549Z" fill="#5451E9"/>
  <path d="M913.51 114.622V211.955L945.91 211.688L978.176 211.288L978.576 199.555L978.976 187.688L968.576 169.822C962.976 159.955 957.776 151.955 957.243 151.955C956.71 151.955 956.043 160.488 955.91 170.888L955.51 189.955H945.51H935.51L935.11 114.222L934.843 38.6216H952.443H970.176L994.176 80.7549C1007.38 103.822 1019.64 125.288 1021.24 128.355C1032.58 148.355 1038.44 158.622 1041.24 163.155L1044.44 168.222L1081.91 103.422L1119.38 38.4883L1136.71 38.8883L1154.18 39.2883V114.622V189.955H1143.51H1132.84L1132.18 125.955L1131.51 61.9549L1096.31 122.622C1076.98 155.955 1059.91 184.888 1058.58 186.888C1056.18 190.488 1055.51 190.622 1044.98 190.622C1032.18 190.622 1032.98 191.288 1024.18 175.955C990.976 118.488 958.043 62.6216 957.243 62.6216C956.576 62.6216 956.176 71.1549 956.176 81.5549L956.31 100.622L987.91 155.955L1019.64 211.288L1044.44 211.688L1069.24 211.955L1088.18 178.355C1098.71 159.822 1107.91 143.822 1108.71 142.755C1109.78 141.422 1110.31 150.355 1110.84 176.088L1111.51 211.288H1143.51H1175.51L1175.91 114.222L1176.18 17.2883L1141.24 17.5549L1106.44 17.9549L1076.04 71.6883C1059.38 101.288 1045.38 125.822 1045.11 126.222C1044.58 126.755 1037.91 115.422 1021.78 86.6216C1019.51 82.6216 1009.91 65.4216 1000.31 48.6216L982.976 17.9549L948.31 17.5549L913.51 17.2883V114.622Z" fill="black"/>
  <path d="M1214.84 49.2883V81.2883H1296.58C1373.91 81.2883 1378.58 81.1549 1380.58 78.8883C1381.78 77.5549 1383.24 74.6216 1383.64 72.2216C1384.31 68.7549 1383.78 67.4216 1380.44 63.9549L1376.44 59.9549H1306.31H1236.18V49.2883V38.6216H1308.18C1386.44 38.6216 1384.44 38.4883 1394.58 46.2216C1397.11 48.0883 1400.58 52.7549 1402.44 56.8883C1410.18 73.8216 1404.18 91.5549 1387.51 100.488C1382.18 103.288 1381.51 103.288 1298.84 103.288H1215.51V157.288V211.288L1247.11 211.688L1278.84 211.955L1279.11 190.355L1279.51 168.622H1304.04H1328.44L1340.84 189.955L1353.24 211.288L1390.04 211.688C1419.24 211.955 1426.84 211.688 1426.84 210.355C1426.84 209.422 1421.51 199.555 1415.11 188.622C1408.58 177.555 1400.44 163.688 1396.98 157.555L1390.58 146.622H1378.58C1368.04 146.622 1366.71 146.888 1367.38 148.755C1367.78 149.955 1372.98 159.288 1378.84 169.422C1384.71 179.688 1389.51 188.622 1389.51 189.288C1389.51 190.088 1384.58 190.622 1378.31 190.622C1364.84 190.622 1366.71 192.355 1351.51 165.555L1340.84 146.622L1299.51 147.022L1258.18 147.288L1257.78 169.022L1257.51 190.755L1247.11 190.355L1236.84 189.955L1236.44 157.555L1236.18 125.288H1307.78C1363.38 125.288 1380.98 124.888 1386.18 123.422C1413.78 116.088 1431.11 90.6216 1426.84 63.8216C1424.04 45.0216 1413.11 30.0883 1396.58 22.2216L1387.51 17.9549L1301.24 17.5549L1214.84 17.2883V49.2883Z" fill="black"/>
  <path d="M1467.51 18.8883C1467.11 19.8216 1466.98 63.5549 1467.11 115.955L1467.51 211.288L1499.91 211.688L1532.18 211.955V199.155V186.355L1524.71 173.555C1520.58 166.355 1515.91 158.488 1514.31 155.955L1511.51 151.288L1510.84 170.622L1510.18 189.955H1500.18H1490.18L1489.78 114.222L1489.51 38.6216H1506.71H1524.04L1560.84 103.422C1581.11 139.022 1598.04 167.822 1598.44 167.422C1598.84 167.022 1615.78 138.088 1636.04 103.022L1672.84 39.2883L1690.58 38.8883L1708.18 38.4883V114.622V190.622H1697.51H1686.84L1686.58 125.688L1686.18 60.7549L1648.58 125.288L1610.98 189.955H1598.58H1586.31L1548.84 125.955L1511.51 61.9549L1511.11 81.6883L1510.71 101.422L1542.31 156.755L1573.78 211.955H1598.31H1622.84L1625.91 206.888C1627.64 204.222 1636.71 188.355 1646.04 171.688C1655.51 155.022 1663.78 141.688 1664.31 142.088C1664.98 142.488 1665.51 158.355 1665.51 177.422V211.955H1697.51H1729.51V114.622V17.2883H1695.11H1660.71L1631.11 69.6883C1614.84 98.4883 1600.71 123.155 1599.91 124.355C1598.44 126.355 1594.04 119.155 1567.51 71.9549L1536.84 17.4216L1502.44 17.2883C1476.18 17.2883 1467.91 17.6883 1467.51 18.8883Z" fill="black"/>
  <path d="M1982.84 92.6216V167.955H2078.84H2174.98L2174.58 178.888L2174.18 189.955L2078.58 190.355L1982.84 190.622V201.288V211.955L2089.24 211.688L2195.51 211.288L2195.91 178.888L2196.18 146.622H2100.18H2004.18V92.6216V38.6216H2014.84H2025.51L2025.78 81.5549L2026.18 124.622L2036.58 125.022L2046.84 125.422V71.2883V17.2883H2014.84H1982.84V92.6216Z" fill="black"/>
  <path d="M2320.44 28.2216C2316.98 34.3549 2306.71 51.8216 2297.91 67.2883C2234.84 176.622 2216.18 209.422 2216.18 210.622C2216.18 211.555 2228.84 211.822 2253.11 211.688L2290.04 211.288L2326.31 148.088C2346.31 113.422 2363.11 84.4883 2363.78 83.8216C2364.44 83.1549 2368.71 89.2883 2373.91 98.355C2378.84 106.888 2383.51 114.888 2384.18 115.955C2384.84 117.022 2391.91 129.288 2399.91 143.288C2407.91 157.155 2417.24 173.288 2420.58 179.022C2425.11 186.488 2426.31 189.555 2424.98 190.088C2424.04 190.488 2418.58 190.622 2412.84 190.355L2402.31 189.955L2396.44 179.955C2393.11 174.488 2388.84 167.155 2386.98 163.822C2377.11 146.222 2365.24 126.622 2364.44 126.622C2363.91 126.622 2360.98 131.155 2357.78 136.755L2352.04 146.755L2371.11 179.288L2390.04 211.955H2426.44C2449.64 211.955 2462.84 211.422 2462.84 210.622C2462.84 209.955 2454.84 195.288 2444.98 178.355C2435.11 161.288 2413.24 123.288 2396.44 93.9549C2379.51 64.6216 2365.24 40.4883 2364.58 40.3549C2364.04 40.2216 2354.98 54.8883 2344.58 73.0216C2303.11 145.555 2278.84 187.422 2277.51 188.888C2275.64 191.155 2253.51 191.288 2253.51 189.155C2253.51 188.355 2275.38 149.688 2302.18 103.288C2328.98 56.7549 2350.84 18.3549 2350.84 17.9549C2350.84 17.5549 2345.51 17.2883 2338.84 17.2883H2326.98L2320.44 28.2216Z" fill="black"/>
  <path d="M2504.18 114.622V211.955H2610.18H2716.18V179.288V146.622L2631.91 146.888L2547.51 147.288L2547.11 157.555L2546.71 167.955H2620.84H2694.98L2694.58 178.888L2694.18 189.955H2610.18H2526.18L2525.78 114.222L2525.51 38.6216H2610.18H2694.84V49.2883V59.9549L2621.24 60.2216L2547.51 60.6216V92.6216V124.622H2612.84H2678.18V114.622V104.622L2623.51 103.955L2568.84 103.288V92.6216V81.9549L2642.58 81.5549L2716.18 81.2883V49.2883V17.2883H2610.18H2504.18V114.622Z" fill="black"/>
  <path d="M2755.11 114.222L2755.51 211.288L2787.91 211.688L2820.18 211.955V201.288V190.755L2799.24 190.355L2778.18 189.955L2777.78 114.222L2777.51 38.6216H2788.18H2798.84V103.288V167.955H2809.51H2820.18V92.6216V17.2883H2787.51H2754.84L2755.11 114.222Z" fill="black"/>
  <path d="M1099.78 376.088C1091.11 378.088 1082.44 383.422 1075.11 391.155C1064.44 402.488 1062.18 408.355 1062.18 425.288C1062.18 438.488 1062.44 439.955 1066.58 448.222C1074.84 465.022 1089.91 474.755 1109.11 475.688C1124.58 476.488 1135.11 472.755 1146.31 462.355C1160.44 449.155 1165.64 431.555 1160.98 413.288C1154.04 386.355 1126.71 369.688 1099.78 376.088ZM1119.64 397.955C1134.58 402.355 1143.64 419.955 1138.71 434.755C1132.31 453.688 1108.71 460.488 1093.91 447.555C1077.11 432.755 1082.58 405.422 1103.78 397.822C1110.31 395.555 1111.64 395.555 1119.64 397.955Z" fill="black"/>
  <path d="M1660.98 376.622C1648.98 380.888 1642.84 389.822 1642.84 402.622C1642.98 419.688 1653.91 429.688 1677.91 434.622C1687.51 436.622 1692.58 440.622 1692.58 446.488C1692.58 453.022 1689.51 455.155 1678.84 455.688C1669.64 456.222 1669.51 456.222 1664.71 451.422C1660.18 446.888 1659.51 446.622 1650.71 446.622H1641.51V450.888C1641.51 456.355 1645.51 465.022 1649.64 468.888C1655.64 474.355 1662.58 476.355 1676.18 476.355C1696.44 476.355 1706.31 472.222 1711.91 461.288C1715.78 453.422 1715.91 441.688 1712.04 433.822C1707.64 424.622 1700.58 420.888 1675.64 414.355C1657.91 409.688 1662.84 392.888 1681.51 395.022C1686.04 395.555 1688.31 396.622 1690.98 399.822C1694.04 403.688 1694.98 403.955 1702.71 403.955C1712.18 403.955 1713.11 403.022 1710.84 394.622C1708.71 386.488 1701.24 379.022 1693.11 376.622C1684.71 374.088 1667.91 374.088 1660.98 376.622Z" fill="black"/>
  <path d="M1747.64 376.622C1739.91 379.422 1735.91 382.755 1732.58 389.288C1728.58 397.022 1728.44 408.622 1732.18 416.088C1736.84 425.155 1742.71 428.355 1769.78 436.222C1776.18 438.088 1778.98 441.288 1779.11 446.622C1779.24 452.755 1776.18 455.022 1766.84 455.688C1757.51 456.355 1751.91 454.488 1749.51 449.822C1747.91 446.888 1746.98 446.622 1737.91 446.622H1728.18V450.888C1728.31 460.888 1736.31 471.288 1746.44 474.755C1752.84 476.888 1773.78 477.022 1780.98 474.888C1794.18 471.022 1801.51 461.422 1801.51 447.955C1801.38 433.422 1793.24 423.288 1777.51 418.622C1752.31 411.155 1753.11 411.422 1751.78 407.688C1749.78 401.555 1753.11 396.888 1760.31 395.422C1768.31 393.955 1772.98 395.155 1777.64 400.088C1780.84 403.555 1782.04 403.955 1789.38 403.955C1798.84 403.955 1799.78 402.888 1797.51 394.622C1795.38 386.488 1787.91 379.022 1779.78 376.622C1771.38 374.088 1754.58 374.088 1747.64 376.622Z" fill="black"/>
  <path d="M1886.84 376.622C1877.38 380.888 1872.18 388.355 1871.91 397.688C1871.78 405.022 1872.98 408.622 1877.51 415.288L1881.24 420.755L1876.18 425.022C1868.44 431.422 1865.11 439.555 1865.78 449.955C1866.18 457.022 1866.98 459.422 1870.31 463.555C1881.38 477.422 1904.44 479.422 1920.44 467.688C1922.44 466.222 1923.51 466.755 1928.18 471.288L1933.51 476.488L1938.84 471.288C1941.78 468.488 1944.18 465.422 1944.18 464.622C1944.18 463.822 1942.31 461.022 1940.04 458.222C1936.04 453.288 1936.04 453.288 1938.44 449.288L1940.71 445.288L1935.38 439.822L1930.04 434.488L1926.58 437.288L1923.11 439.955L1916.44 432.355L1909.78 424.755L1915.51 419.288C1918.71 416.355 1922.31 411.688 1923.51 408.888C1928.04 397.955 1924.44 385.422 1914.84 379.155C1908.04 374.622 1894.04 373.422 1886.84 376.622ZM1902.58 394.088C1906.71 397.022 1906.44 402.622 1901.78 407.022C1899.78 409.022 1897.64 410.622 1897.11 410.622C1895.64 410.622 1890.84 402.222 1890.84 399.555C1890.84 396.888 1895.38 391.955 1897.91 391.955C1898.84 391.955 1900.98 392.888 1902.58 394.088ZM1902.58 443.022C1906.44 447.155 1909.51 451.155 1909.51 451.955C1909.51 452.622 1907.11 453.955 1904.18 454.755C1893.51 457.955 1884.98 451.688 1888.31 443.022C1889.91 438.888 1893.51 434.355 1894.84 434.888C1895.24 435.155 1898.84 438.755 1902.58 443.022Z" fill="black"/>
  <path d="M2143.91 377.155C2133.78 380.488 2128.04 384.222 2120.98 392.088C2112.31 401.688 2108.98 411.155 2108.84 425.955C2108.84 436.622 2109.38 438.888 2112.98 446.622C2117.91 457.022 2127.38 466.755 2137.51 471.688C2144.04 474.888 2146.31 475.288 2158.84 475.288C2171.38 475.288 2173.64 474.888 2180.31 471.555C2213.24 455.422 2220.04 413.555 2193.64 388.888C2180.04 376.088 2160.71 371.555 2143.91 377.155ZM2173.24 400.755C2181.78 405.822 2186.04 413.155 2186.58 423.822C2187.11 434.755 2183.64 442.488 2175.24 448.888C2161.78 459.022 2142.44 454.488 2134.58 439.555C2130.84 432.488 2130.44 418.755 2133.78 412.488C2141.91 397.555 2158.98 392.355 2173.24 400.755Z" fill="black"/>
  <path d="M2261.24 377.155C2251.11 380.488 2245.38 384.222 2238.31 392.088C2229.64 401.688 2226.31 411.155 2226.18 425.955C2226.18 436.622 2226.71 438.888 2230.44 446.888C2235.38 457.422 2244.31 466.488 2254.84 471.688C2261.38 474.888 2263.64 475.288 2276.18 475.288C2288.71 475.288 2290.98 474.888 2297.64 471.555C2308.84 466.088 2316.71 458.488 2321.78 448.222C2325.91 439.955 2326.18 438.355 2326.18 425.955C2326.18 414.088 2325.78 411.688 2322.31 404.355C2317.64 394.222 2307.24 383.822 2296.71 379.022C2286.71 374.488 2271.78 373.555 2261.24 377.155ZM2290.58 400.755C2299.11 405.822 2303.38 413.155 2303.91 423.822C2304.31 431.022 2303.78 433.688 2301.24 438.622C2292.98 454.622 2273.38 459.155 2259.11 448.355C2245.24 437.955 2245.24 412.888 2259.24 402.488C2268.84 395.422 2280.31 394.755 2290.58 400.755Z" fill="black"/>
  <path d="M2380.04 376.355C2366.18 380.355 2353.51 391.288 2347.11 405.022C2344.04 411.555 2343.51 414.355 2343.51 425.288C2343.51 436.888 2343.91 438.755 2347.78 446.755C2356.58 464.488 2372.31 474.755 2392.18 475.688C2412.04 476.622 2425.51 469.022 2433.64 452.488C2437.64 444.488 2438.04 442.488 2438.04 430.755L2438.18 417.955L2415.91 417.555L2393.51 417.288V426.622V435.955H2404.98H2416.58L2415.64 440.222C2412.84 454.222 2389.11 458.488 2376.58 447.555C2362.98 435.555 2363.64 413.422 2377.91 402.088C2382.71 398.222 2383.78 397.955 2393.91 397.955C2403.64 397.955 2405.51 398.355 2410.71 401.688L2416.44 405.555L2420.44 401.688C2422.58 399.688 2425.64 396.222 2427.11 394.222L2429.78 390.488L2426.71 387.155C2424.98 385.288 2419.91 381.955 2415.38 379.822C2405.64 375.022 2390.18 373.422 2380.04 376.355Z" fill="black"/>
  <path d="M913.51 376.488C913.51 378.088 937.643 469.155 938.843 471.555C940.043 474.355 940.976 474.622 951.376 474.622H962.71L965.51 464.888C981.776 409.688 980.043 414.755 981.376 417.288C982.043 418.355 984.443 425.822 986.71 433.955C989.11 441.955 992.843 454.488 994.976 461.555L998.976 474.622H1010.31C1020.71 474.622 1021.64 474.355 1022.84 471.555C1024.04 468.755 1048.18 378.355 1048.18 376.755C1048.18 376.355 1043.11 375.955 1036.84 375.955C1028.98 375.955 1025.24 376.488 1024.84 377.555C1024.44 378.488 1023.38 383.155 1022.31 387.955C1018.98 403.422 1010.71 437.955 1009.91 439.955C1008.84 442.755 1008.71 442.488 999.51 407.288L991.51 376.622L981.11 376.222C971.376 375.822 970.71 376.088 969.643 378.888C968.976 380.622 964.976 395.555 960.71 412.222C956.443 428.888 952.576 442.088 952.176 441.555C951.643 441.022 948.176 426.622 944.31 409.422C940.443 392.222 937.11 377.688 936.71 377.022C936.043 375.955 913.51 375.422 913.51 376.488Z" fill="black"/>
  <path d="M1181.51 425.155V474.755L1192.58 474.355L1203.51 473.955L1203.91 458.222L1204.31 442.622H1211.91H1219.51L1227.64 458.355L1235.91 473.955L1246.71 474.355C1252.71 474.622 1257.51 474.222 1257.51 473.555C1257.51 472.755 1253.91 465.422 1249.51 457.155C1241.64 442.355 1240.31 438.622 1242.71 438.622C1244.98 438.622 1252.18 431.822 1254.31 427.822C1259.91 416.888 1259.24 397.422 1252.98 387.955C1251.11 385.022 1247.11 381.822 1243.24 379.822C1237.24 377.022 1234.98 376.755 1209.24 376.222L1181.51 375.688V425.155ZM1232.84 399.288C1237.64 403.955 1237.51 414.222 1232.84 418.622C1229.91 421.422 1227.78 421.955 1216.84 422.355L1204.18 422.888V409.422V395.955H1216.84C1228.58 395.955 1229.91 396.222 1232.84 399.288Z" fill="black"/>
  <path d="M1274.84 425.422V474.888L1297.91 474.355C1317.91 473.955 1321.78 473.422 1328.44 470.888C1349.51 462.488 1361.51 440.488 1357.64 417.155C1354.31 397.155 1344.18 384.888 1325.78 378.755C1318.84 376.355 1314.31 375.955 1296.18 375.955H1274.84V425.422ZM1319.78 397.955C1330.58 402.488 1334.71 410.222 1334.84 425.155C1334.84 437.555 1331.51 445.288 1323.91 450.222C1319.78 453.022 1316.58 453.822 1308.04 454.355L1297.51 455.022V425.422V395.955H1306.18C1310.98 395.955 1317.11 396.888 1319.78 397.955Z" fill="black"/>
  <path d="M1374.84 425.155V474.755L1385.91 474.355L1396.84 473.955L1397.24 458.488L1397.64 443.022L1411.91 442.222C1428.04 441.288 1433.91 439.955 1440.31 435.555C1449.11 429.688 1453.11 417.022 1450.84 401.688C1449.38 390.488 1445.11 383.955 1436.58 379.822C1430.58 377.022 1428.31 376.755 1402.58 376.222L1374.84 375.688V425.155ZM1426.18 399.288C1430.98 403.955 1430.84 414.222 1426.18 418.622C1423.24 421.422 1421.11 421.955 1410.18 422.355L1397.51 422.888V409.422V395.955H1410.18C1421.91 395.955 1423.24 396.222 1426.18 399.288Z" fill="black"/>
  <path d="M1467.51 377.555C1467.11 378.488 1466.98 400.622 1467.11 426.622L1467.51 473.955L1478.44 474.355L1489.38 474.755L1489.78 459.022L1490.18 443.288L1498.18 442.888L1506.18 442.488L1514.18 458.622L1522.04 474.622H1533.11C1539.24 474.622 1544.18 474.222 1544.18 473.822C1544.18 473.288 1540.31 465.555 1535.51 456.622C1530.71 447.555 1526.84 439.822 1526.84 439.422C1526.84 439.022 1527.78 438.622 1528.84 438.622C1532.31 438.622 1541.11 428.888 1542.71 423.288C1543.51 420.355 1544.18 413.422 1544.18 407.955C1544.04 392.622 1539.38 384.355 1527.51 379.022C1520.44 375.955 1468.58 374.622 1467.51 377.555ZM1519.64 398.755C1520.84 400.088 1522.18 403.822 1522.44 407.155C1523.78 418.622 1516.98 423.155 1499.11 422.355L1490.18 421.955L1489.78 408.888L1489.38 395.688L1503.38 396.222C1514.18 396.488 1517.91 397.155 1519.64 398.755Z" fill="black"/>
  <path d="M1560.84 377.688C1560.44 378.488 1560.31 400.622 1560.44 426.622L1560.84 473.955L1593.91 474.355L1626.84 474.622V464.622V454.622L1605.24 454.355L1583.51 453.955V444.622V435.288L1603.24 434.888L1622.84 434.488V424.622V414.622H1602.84H1582.71L1583.11 405.555L1583.51 396.622L1604.84 395.955L1626.18 395.288L1626.58 385.555L1626.98 375.955H1594.18C1569.11 375.955 1561.24 376.355 1560.84 377.688Z" fill="black"/>
  <path d="M2005.51 377.288C2005.51 378.088 2012.84 398.622 2021.64 423.022C2030.58 447.422 2038.44 468.888 2039.11 470.888C2040.44 474.488 2040.71 474.622 2050.18 474.622C2056.31 474.622 2060.31 473.955 2061.24 472.888C2062.71 471.022 2096.18 379.822 2096.18 377.555C2096.18 376.488 2092.71 375.955 2084.98 375.955H2073.78L2062.58 409.288C2056.58 427.555 2051.24 442.622 2050.84 442.622C2050.31 442.622 2048.58 438.222 2046.98 432.888C2045.24 427.688 2040.31 412.622 2035.91 399.555L2027.91 375.955H2016.71C2009.78 375.955 2005.51 376.488 2005.51 377.288Z" fill="black"/>
</svg>
